<?xml version="1.0" encoding="UTF-8"?>
<!DOCTYPE svg PUBLIC "-//W3C//DTD SVG 1.1//EN" "http://www.w3.org/Graphics/SVG/1.1/DTD/svg11.dtd">
<!-- Creator: CorelDRAW Home & Student X6 -->
<svg xmlns="http://www.w3.org/2000/svg" xml:space="preserve" width="19.314mm" height="19.314mm" version="1.1" style="shape-rendering:geometricPrecision; text-rendering:geometricPrecision; image-rendering:optimizeQuality; fill-rule:evenodd; clip-rule:evenodd"
viewBox="0 0 7092 7092"
 xmlns:xlink="http://www.w3.org/1999/xlink">
 <defs>
  <style type="text/css">
   <![CDATA[
    .str2 {stroke:#8F3679;stroke-width:91.8036}
    .str1 {stroke:#8F3679;stroke-width:183.607}
    .str0 {stroke:#8F3679;stroke-width:275.411}
    .fil0 {fill:none}
   ]]>
  </style>
 </defs>
 <g id="Camada_x0020_1">
  <metadata id="CorelCorpID_0Corel-Layer"/>
  <path class="fil0 str0" d="M3464 3542l-1408 0c-65,0 -119,-53 -119,-119l0 -1665c0,-65 53,-119 119,-119l3103 0c65,0 119,53 119,119l0 1665c0,65 -53,119 -119,119l-1109 0"/>
  <path class="fil0 str1" d="M3968 4658c0,0 -29,-458 -14,-615 14,-157 131,-642 174,-757 75,-204 -35,-363 -194,-364 -117,0 -262,51 -380,406 -71,214 -119,369 -162,484 -156,419 -529,589 -330,1232 106,343 -121,869 -121,1273"/>
  <path class="fil0 str1" d="M4095 6374c0,0 -12,-543 159,-901 172,-358 501,-772 529,-973 29,-200 -278,-958 -278,-958"/>
  <path class="fil0 str1" d="M3183 3542c0,0 -167,150 -129,308 37,159 134,272 134,272"/>
  <rect class="fil0 str2" x="2384" y="2015" width="585" height="666" rx="21" ry="42"/>
  <line class="fil0 str2" x1="3314" y1="2094" x2="4821" y2= "2094" />
  <line class="fil0 str2" x1="3314" y1="2412" x2="4821" y2= "2412" />
  <line class="fil0 str2" x1="2392" y1="3065" x2="3037" y2= "3065" />
  <rect class="fil0" width="7092" height="7092"/>
 </g>
</svg>
