<?xml version="1.0" encoding="UTF-8"?>
<!DOCTYPE svg PUBLIC "-//W3C//DTD SVG 1.1//EN" "http://www.w3.org/Graphics/SVG/1.1/DTD/svg11.dtd">
<!-- Creator: CorelDRAW Home & Student X6 -->
<svg xmlns="http://www.w3.org/2000/svg" xml:space="preserve" width="19.314mm" height="19.314mm" version="1.1" style="shape-rendering:geometricPrecision; text-rendering:geometricPrecision; image-rendering:optimizeQuality; fill-rule:evenodd; clip-rule:evenodd"
viewBox="0 0 662 662"
 xmlns:xlink="http://www.w3.org/1999/xlink">
 <defs>
  <style type="text/css">
   <![CDATA[
    .str4 {stroke:#39B46A;stroke-width:8.57449}
    .str3 {stroke:#39B46A;stroke-width:8.57449;stroke-linecap:round;stroke-linejoin:round}
    .str1 {stroke:#39B46A;stroke-width:17.149}
    .str2 {stroke:#39B46A;stroke-width:17.149;stroke-linecap:round;stroke-linejoin:round}
    .str0 {stroke:#39B46A;stroke-width:25.7235;stroke-linecap:round;stroke-linejoin:round}
    .fil1 {fill:none}
    .fil0 {fill:#39B46A}
   ]]>
  </style>
 </defs>
 <g id="Camada_x0020_1">
  <metadata id="CorelCorpID_0Corel-Layer"/>
  <g id="_176686688">
   <path class="fil0" d="M307 585c7,1 14,2 22,3 0,-9 0,-17 0,-26 0,-9 0,-17 0,-26 -8,0 -15,0 -22,0 0,8 0,16 0,24 0,8 0,16 0,24z"/>
   <path class="fil0" d="M311 427c4,-1 9,-2 13,-3 0,7 0,14 0,20 -5,1 -9,2 -13,3 0,-7 0,-13 0,-20z"/>
   <path class="fil0" d="M311 464c4,-1 9,-1 13,-2 0,7 0,14 0,20 -5,0 -9,1 -13,1 0,-7 0,-13 0,-20z"/>
   <path class="fil0" d="M311 502c4,0 9,-1 13,-1 0,7 0,14 0,20 -5,0 -9,0 -13,0 0,-7 0,-13 0,-20z"/>
   <path class="fil0" d="M282 434c4,-1 8,-2 12,-3 0,6 0,13 0,19 -4,1 -8,1 -12,2 0,-6 0,-12 0,-18z"/>
   <path class="fil0" d="M282 469c4,-1 8,-1 12,-2 0,6 0,13 0,19 -4,0 -8,1 -12,1 0,-6 0,-12 0,-18z"/>
   <path class="fil0" d="M282 504c4,0 8,0 12,-1 0,6 0,13 0,19 -4,0 -8,0 -12,0 0,-6 0,-12 0,-18z"/>
   <path class="fil0" d="M345 418c5,-1 10,-2 16,-4 0,7 0,15 0,22 -5,1 -11,2 -16,3 0,-7 0,-14 0,-21z"/>
   <path class="fil0" d="M345 459c5,-1 10,-2 16,-2 0,7 0,15 0,22 -5,1 -11,1 -16,2 0,-7 0,-14 0,-21z"/>
   <path class="fil0" d="M345 500c5,0 10,-1 16,-1 0,7 0,15 0,22 -5,0 -11,0 -16,0 0,-7 0,-14 0,-21z"/>
  </g>
  <rect class="fil1" width="662" height="662"/>
  <polygon class="fil1 str0" points="260,407 382,375 452,405 452,589 382,602 260,589 "/>
  <line class="fil1 str1" x1="382" y1="375" x2="382" y2= "602" />
  <path class="fil0" d="M357 81c55,0 99,44 99,99 0,55 -44,126 -99,173 -55,-47 -99,-118 -99,-173 0,-55 44,-99 99,-99zm0 41c32,0 58,26 58,58 0,32 -26,58 -58,58 -32,0 -58,-26 -58,-58 0,-32 26,-58 58,-58z"/>
  <polygon class="fil1 str2" points="141,450 215,431 257,449 257,561 215,569 141,561 "/>
  <path class="fil0" d="M168 562c5,1 9,1 14,2 0,-5 0,-11 0,-16 0,-5 0,-11 0,-16 -5,0 -10,0 -14,0 0,5 0,10 0,16 0,5 0,10 0,16z"/>
  <path class="fil0" d="M171 461c3,-1 6,-1 9,-2 0,4 0,9 0,13 -3,1 -6,1 -9,2 0,-4 0,-8 0,-13z"/>
  <path class="fil0" d="M171 485c3,0 6,-1 9,-1 0,4 0,9 0,13 -3,0 -6,1 -9,1 0,-4 0,-8 0,-13z"/>
  <path class="fil0" d="M171 509c3,0 6,0 9,-1 0,4 0,9 0,13 -3,0 -6,0 -9,0 0,-4 0,-8 0,-13z"/>
  <path class="fil0" d="M152 465c2,-1 5,-1 7,-2 0,4 0,8 0,12 -3,0 -5,1 -7,1 0,-4 0,-8 0,-12z"/>
  <path class="fil0" d="M152 488c2,0 5,-1 7,-1 0,4 0,8 0,12 -3,0 -5,1 -7,1 0,-4 0,-8 0,-12z"/>
  <path class="fil0" d="M152 510c2,0 5,0 7,0 0,4 0,8 0,12 -3,0 -5,0 -7,0 0,-4 0,-8 0,-12z"/>
  <path class="fil0" d="M193 456c3,-1 7,-2 10,-2 0,5 0,9 0,14 -3,1 -7,1 -10,2 0,-5 0,-9 0,-14z"/>
  <path class="fil0" d="M193 482c3,0 7,-1 10,-1 0,5 0,9 0,14 -3,0 -7,1 -10,1 0,-5 0,-9 0,-14z"/>
  <path class="fil0" d="M193 508c3,0 7,0 10,-1 0,5 0,9 0,14 -3,0 -7,0 -10,0 0,-5 0,-9 0,-14z"/>
  <line class="fil1 str1" x1="215" y1="431" x2="215" y2= "569" />
  <path class="fil0" d="M200 281c26,0 48,21 48,48 0,26 -21,61 -48,84 -26,-23 -48,-57 -48,-84 0,-26 21,-48 48,-48zm0 20c16,0 28,13 28,28 0,16 -13,28 -28,28 -16,0 -28,-13 -28,-28 0,-16 13,-28 28,-28z"/>
  <polygon class="fil1 str3" points="461,498 505,487 530,498 530,564 505,569 461,564 "/>
  <path class="fil0" d="M478 565c3,0 5,1 8,1 0,-3 0,-6 0,-10 0,-3 0,-6 0,-10 -3,0 -6,0 -8,0 0,3 0,6 0,9 0,3 0,6 0,9z"/>
  <path class="fil0" d="M479 505c2,0 3,-1 5,-1 0,3 0,5 0,8 -2,0 -3,1 -5,1 0,-2 0,-5 0,-7z"/>
  <path class="fil0" d="M479 519c2,0 3,0 5,-1 0,3 0,5 0,8 -2,0 -3,0 -5,1 0,-2 0,-5 0,-7z"/>
  <path class="fil0" d="M479 533c2,0 3,0 5,0 0,3 0,5 0,8 -2,0 -3,0 -5,0 0,-2 0,-5 0,-7z"/>
  <path class="fil0" d="M468 507c1,0 3,-1 4,-1 0,2 0,5 0,7 -1,0 -3,1 -4,1 0,-2 0,-5 0,-7z"/>
  <path class="fil0" d="M468 521c1,0 3,0 4,-1 0,2 0,5 0,7 -1,0 -3,0 -4,0 0,-2 0,-5 0,-7z"/>
  <path class="fil0" d="M468 534c1,0 3,0 4,0 0,2 0,5 0,7 -1,0 -3,0 -4,0 0,-2 0,-5 0,-7z"/>
  <path class="fil0" d="M492 502c2,0 4,-1 6,-1 0,3 0,6 0,8 -2,0 -4,1 -6,1 0,-3 0,-5 0,-8z"/>
  <path class="fil0" d="M492 517c2,0 4,-1 6,-1 0,3 0,6 0,8 -2,0 -4,0 -6,1 0,-3 0,-5 0,-8z"/>
  <path class="fil0" d="M492 533c2,0 4,0 6,0 0,3 0,6 0,8 -2,0 -4,0 -6,0 0,-3 0,-5 0,-8z"/>
  <line class="fil1 str4" x1="505" y1="487" x2="505" y2= "569" />
  <path class="fil0" d="M496 398c16,0 28,13 28,28 0,16 -13,36 -28,50 -16,-13 -28,-34 -28,-50 0,-16 13,-28 28,-28zm0 12c9,0 17,7 17,17 0,9 -7,17 -17,17 -9,0 -17,-7 -17,-17 0,-9 7,-17 17,-17z"/>
 </g>
</svg>
