<?xml version="1.0" encoding="UTF-8"?>
<!DOCTYPE svg PUBLIC "-//W3C//DTD SVG 1.1//EN" "http://www.w3.org/Graphics/SVG/1.1/DTD/svg11.dtd">
<!-- Creator: CorelDRAW Home & Student X6 -->
<svg xmlns="http://www.w3.org/2000/svg" xml:space="preserve" width="19.314mm" height="19.314mm" version="1.1" shape-rendering="geometricPrecision" text-rendering="geometricPrecision" image-rendering="optimizeQuality" fill-rule="evenodd" clip-rule="evenodd"
viewBox="0 0 19607 19607"
 xmlns:xlink="http://www.w3.org/1999/xlink">
 <g id="Camada_x0020_1">
  <metadata id="CorelCorpID_0Corel-Layer"/>
  <rect fill="none" width="19607" height="19607"/>
  <path fill="#FF7F00" d="M12070 10070l-268 454c-38,65 -96,72 -119,72 -24,0 -81,-6 -120,-70l-7 -12c-136,-221 -360,-340 -599,-318 -239,22 -443,180 -544,423l-143 344c-39,93 -114,96 -144,92 -30,-3 -104,-21 -126,-121l-311 -1369c-76,-332 -332,-554 -639,-554 -1,0 -2,0 -4,0 -308,2 -565,228 -637,562l-281 1291c-22,101 -97,119 -128,122 -31,3 -107,0 -145,-96l-277 -710c-105,-269 -342,-442 -605,-442l-743 0c-396,0 -397,575 0,575l743 0c57,0 109,38 132,97l277 710c115,294 374,467 661,439 287,-28 516,-247 584,-559l281 -1291c24,-110 105,-123 139,-123 35,0 115,11 140,121l312 1369c69,306 296,522 578,551 22,2 43,3 64,3 256,0 486,-162 596,-426l143 -344c32,-77 94,-90 119,-93 25,-2 88,0 131,69l8 12c123,201 326,320 544,320 2,0 4,0 6,0 220,-2 424,-126 545,-331l268 -454c27,-45 72,-72 120,-72l809 0c372,0 371,-575 0,-575l-810 0c-222,0 -428,124 -551,331z"/>
  <path fill="#FF7F00" fill-rule="nonzero" d="M5382 3562l1758 0 0 761 -1758 0c-184,0 -351,75 -471,195l-1 1c-120,120 -195,287 -195,471l0 11370c0,184 75,351 195,471l1 1c120,120 287,195 471,195l8866 0c183,0 350,-75 471,-196l1 0c120,-120 195,-287 195,-471l0 -11370c0,-184 -75,-351 -195,-471l-1 0c-121,-121 -288,-196 -471,-196l-1758 0 0 -761 1758 0c393,0 751,161 1010,420l-1 1c259,259 420,617 420,1009l0 11370c0,392 -161,749 -420,1009l1 1c-259,259 -616,420 -1010,420l-8866 0c-392,0 -749,-161 -1008,-420l-1 -1 -1 -1c-259,-259 -420,-616 -420,-1008l0 -11370c0,-392 161,-749 420,-1008l1 -1 1 -1c259,-259 616,-420 1008,-420z"/>
  <path fill="#FF7F00" fill-rule="nonzero" d="M7329 2634l4972 0c157,0 300,64 403,167 103,103 167,246 167,403l0 1598c0,155 -64,297 -167,401l-1 1c-104,103 -246,167 -401,167l-4972 0c-157,0 -299,-64 -403,-167 -103,-103 -167,-246 -167,-403l0 -1598c0,-156 64,-298 167,-401l1 -1c103,-103 245,-167 401,-167zm4780 761l-4589 0 0 1214 4589 0 0 -1214z"/>
  <path fill="#FF7F00" fill-rule="nonzero" d="M6053 14472c-140,0 -254,-114 -254,-254 0,-140 114,-254 254,-254l3106 0c140,0 254,114 254,254 0,140 -114,254 -254,254l-3106 0z"/>
  <path fill="#FF7F00" fill-rule="nonzero" d="M6053 15972c-140,0 -254,-114 -254,-254 0,-140 114,-254 254,-254l6211 0c140,0 254,114 254,254 0,140 -114,254 -254,254l-6211 0z"/>
 </g>
</svg>
