<?xml version="1.0" encoding="UTF-8"?>
<!DOCTYPE svg PUBLIC "-//W3C//DTD SVG 1.1//EN" "http://www.w3.org/Graphics/SVG/1.1/DTD/svg11.dtd">
<!-- Creator: CorelDRAW Home & Student X6 -->
<svg xmlns="http://www.w3.org/2000/svg" xml:space="preserve" width="87.4964mm" height="23.869mm" version="1.1" style="shape-rendering:geometricPrecision; text-rendering:geometricPrecision; image-rendering:optimizeQuality; fill-rule:evenodd; clip-rule:evenodd"
viewBox="0 0 6459 1762"
 xmlns:xlink="http://www.w3.org/1999/xlink">
 <defs>
  <style type="text/css">
   <![CDATA[
    .fil1 {fill:none}
    .fil0 {fill:#0f366f;fill-rule:nonzero}
   ]]>
  </style>
 </defs>
 <g id="Camada_x0020_1">
  <metadata id="CorelCorpID_0Corel-Layer"/>
  <path class="fil0" d="M913 1392c-150,0 -272,-122 -272,-272 0,-150 122,-271 272,-271 150,0 272,122 272,271 0,150 -122,272 -272,272zm-43 -1236l-840 1443c-19,32 -23,81 36,81l464 0c0,-2 0,1 0,-2 8,-143 126,-256 271,-256 145,0 263,114 271,257 0,3 0,-3 0,1l699 0c63,0 70,-42 50,-82l-859 -1447c-29,-42 -63,-36 -91,4z"/>
  <path class="fil0" d="M5596 1261c-207,0 -374,-170 -374,-381 0,-210 167,-381 374,-381 207,0 374,170 374,381 0,210 -167,381 -374,381zm0 -1241c-467,0 -845,385 -845,861 0,475 378,861 845,861 467,0 845,-385 845,-861 0,-475 -378,-861 -845,-861z"/>
  <path class="fil0" d="M3501 1423c150,0 274,111 294,256 0,2 0,-1 0,2l845 0c60,2 79,-31 46,-87l-813 -1425c-27,-35 -63,-36 -90,-2l-395 661 -458 -655c-24,-31 -56,-34 -80,2l-815 1432c-19,29 -19,73 33,73l360 0c19,-145 143,-258 294,-258 151,0 275,112 294,258l190 0c19,-145 144,-258 294,-258z"/>
  <rect class="fil1" width="6459" height="1762"/>
 </g>
</svg>
